# xmcd CD database file
#
# Track frame offsets:
#	150
#	11285
#	24692
#	36070
#	48777
#	62557
#	75122
#	87875
#	101115
#	112682
#	123725
#	137552
#	149310
#	162935
#	174107
#	188692
#	201130
#	210862
#	221942
#	233907
#	245145
#	257632
#	268752
#	279632
#	292402
#	302757
#	315815
#	326562
#	338367
#
# Disc length: 4666 seconds
#
# Revision: 0
# Processed by: cddbd v1.4PL0 Copyright (c) Steve Scherf et al.
# Submitted via: CDex 1.50beta9
#
DISCID=9012381d
DTITLE=Willie Lamothe - Les grands du country
DYEAR=1900
DGENRE=Country
TTITLE0=Je chante à cheval
TTITLE1=Allo! Allo! petit Michel
TTITLE2=Une guitare et un cowboy qui chante
TTITLE3=Mon passage en Gaspésie
TTITLE4=Aux accords de guitare
TTITLE5=Chacun sa vie
TTITLE6=Allo cowboy
TTITLE7=Cowboy Michel
TTITLE8=Autour du feu
TTITLE9=Mon cheval Duke
TTITLE10=Ma prairie si jolie
TTITLE11=À cheval à Montréal
TTITLE12=Lettre à Maman
TTITLE13=Le chant du draveur
TTITLE14=Un fer à cheval
TTITLE15=Quand vous aurez vingt ans
TTITLE16=Petit Henri
TTITLE17=Coeur brisé
TTITLE18=Mon Palomino
TTITLE19=Le dernier mot à Maman
TTITLE20=Sur les bords du Saint-Laurent
TTITLE21=Une vie brisée
TTITLE22=Je suis un vagabond des prairies
TTITLE23=Dans une caresse
TTITLE24=Sous le ciel bleu de ma prairie
TTITLE25=Pourquoi pleurer
TTITLE26=Nos artistes canadiens
TTITLE27=La chanson de Pedro
TTITLE28=Le train du Tennessee
EXTD=
EXTT0=
EXTT1=
EXTT2=
EXTT3=
EXTT4=
EXTT5=
EXTT6=
EXTT7=
EXTT8=
EXTT9=
EXTT10=
EXTT11=
EXTT12=
EXTT13=
EXTT14=
EXTT15=
EXTT16=
EXTT17=
EXTT18=
EXTT19=
EXTT20=
EXTT21=
EXTT22=
EXTT23=
EXTT24=
EXTT25=
EXTT26=
EXTT27=
EXTT28=
PLAYORDER=
